<svg xmlns="http://www.w3.org/2000/svg" xmlns:xlink="http://www.w3.org/1999/xlink" width="80" height="80" viewBox="0 0 80 80">
  <defs>
    <linearGradient id="linear-gradient" x1="0.878" y1="0.126" x2="0.181" y2="0.903" gradientUnits="objectBoundingBox">
      <stop offset="0" stop-color="#2d2ee0" stop-opacity="0.2"/>
      <stop offset="1" stop-color="#2d2ee0" stop-opacity="0"/>
    </linearGradient>
  </defs>
  <g id="Group_1459" data-name="Group 1459" transform="translate(6 0)">
    <rect id="Rectangle_1543" data-name="Rectangle 1543" width="80" height="80" transform="translate(-6 0)" fill="#fff"/>
    <path id="Path_5469" data-name="Path 5469" d="M21.381,0A21.381,21.381,0,1,1,0,21.381,21.381,21.381,0,0,1,21.381,0Z" transform="matrix(-0.966, -0.259, 0.259, -0.966, 54.932, 52.373)" fill="url(#linear-gradient)"/>
    <g id="unlimited" transform="translate(0 8.419)">
      <g id="Group_801" data-name="Group 801" transform="translate(0 2.798)">
        <g id="Group_800" data-name="Group 800">
          <path id="Path_5464" data-name="Path 5464" d="M74.849,19.932H66.455v5.246h5.771v9.881a15.739,15.739,0,0,1-31.479,0V25.178h5.6V19.932H38.124A2.623,2.623,0,0,0,35.5,22.555v12.5a20.986,20.986,0,1,0,41.972,0v-12.5A2.623,2.623,0,0,0,74.849,19.932Z" transform="translate(-35.501 -19.932)" fill="#2d2ee0"/>
        </g>
      </g>
      <g id="Group_803" data-name="Group 803" transform="translate(16.352 36.08)">
        <g id="Group_802" data-name="Group 802">
          <path id="Path_5465" data-name="Path 5465" d="M195.913,263.836v12.417a13.116,13.116,0,1,1-26.232,0V259.114h-5.246v17.138a18.363,18.363,0,1,0,36.725,0V263.836Z" transform="translate(-164.434 -259.114)" fill="#2d2ee0"/>
        </g>
      </g>
      <g id="Group_805" data-name="Group 805" transform="translate(40.748 23.998)">
        <g id="Group_804" data-name="Group 804" transform="translate(0)">
          <path id="Path_5466" data-name="Path 5466" d="M347.923,171.912a9.706,9.706,0,1,0,9.706,9.706A9.717,9.717,0,0,0,347.923,171.912Zm0,14.166a4.459,4.459,0,1,1,4.46-4.459A4.465,4.465,0,0,1,347.922,186.078Z" transform="translate(-338.216 -171.912)" fill="#2d2ee0"/>
        </g>
      </g>
      <g id="Group_807" data-name="Group 807" transform="translate(8.132)">
        <g id="Group_806" data-name="Group 806">
          <path id="Path_5467" data-name="Path 5467" d="M96.051,0a2.623,2.623,0,0,0-2.623,2.623v5.6a2.623,2.623,0,0,0,5.246,0v-5.6A2.623,2.623,0,0,0,96.051,0Z" transform="translate(-93.428)" fill="#2d2ee0"/>
        </g>
      </g>
      <g id="Group_809" data-name="Group 809" transform="translate(27.541)">
        <g id="Group_808" data-name="Group 808">
          <path id="Path_5468" data-name="Path 5468" d="M240.557,0a2.623,2.623,0,0,0-2.623,2.623v5.6a2.623,2.623,0,0,0,5.246,0v-5.6A2.623,2.623,0,0,0,240.557,0Z" transform="translate(-237.934)" fill="#2d2ee0"/>
        </g>
      </g>
    </g>
  </g>
</svg>
