<svg xmlns="http://www.w3.org/2000/svg" width="60.161" height="71.582" viewBox="0 0 60.161 71.582"><defs><style>.a{fill:#2d2ee0;}</style></defs><g transform="translate(0)"><g transform="translate(0 2.798)"><path class="a" d="M74.849,19.932H66.455v5.246h5.771v9.881a15.739,15.739,0,0,1-31.479,0V25.178h5.6V19.932H38.124A2.623,2.623,0,0,0,35.5,22.555v12.5a20.986,20.986,0,1,0,41.972,0v-12.5A2.623,2.623,0,0,0,74.849,19.932Z" transform="translate(-35.501 -19.932)"/></g><g transform="translate(16.352 36.08)"><path class="a" d="M195.913,263.836v12.417a13.116,13.116,0,1,1-26.232,0V259.114h-5.246v17.138a18.363,18.363,0,1,0,36.725,0V263.836Z" transform="translate(-164.434 -259.114)"/></g><g transform="translate(40.748 23.998)"><g transform="translate(0)"><path class="a" d="M347.923,171.912a9.706,9.706,0,1,0,9.706,9.706A9.717,9.717,0,0,0,347.923,171.912Zm0,14.166a4.459,4.459,0,1,1,4.46-4.459A4.465,4.465,0,0,1,347.922,186.078Z" transform="translate(-338.216 -171.912)"/></g></g><g transform="translate(8.132)"><path class="a" d="M96.051,0a2.623,2.623,0,0,0-2.623,2.623v5.6a2.623,2.623,0,0,0,5.246,0v-5.6A2.623,2.623,0,0,0,96.051,0Z" transform="translate(-93.428)"/></g><g transform="translate(27.541)"><path class="a" d="M240.557,0a2.623,2.623,0,0,0-2.623,2.623v5.6a2.623,2.623,0,0,0,5.246,0v-5.6A2.623,2.623,0,0,0,240.557,0Z" transform="translate(-237.934)"/></g></g></svg>