<svg xmlns="http://www.w3.org/2000/svg" xmlns:xlink="http://www.w3.org/1999/xlink" width="64" height="64" viewBox="0 0 64 64">
  <defs>
    <linearGradient id="linear-gradient" x1="0.878" y1="0.126" x2="0.181" y2="0.903" gradientUnits="objectBoundingBox">
      <stop offset="0" stop-color="#2d2ee0" stop-opacity="0.2"/>
      <stop offset="1" stop-color="#2d2ee0" stop-opacity="0"/>
    </linearGradient>
  </defs>
  <g id="Group_1459" data-name="Group 1459" transform="translate(6)">
    <rect id="Rectangle_1543" data-name="Rectangle 1543" width="64" height="64" transform="translate(-6)" fill="#fff"/>
    <path id="Path_5469" data-name="Path 5469" d="M17,0A17,17,0,1,1,0,17,17,17,0,0,1,17,0Z" transform="matrix(-0.966, -0.259, 0.259, -0.966, 46.45, 41.644)" fill="url(#linear-gradient)"/>
    <g id="unlimited" transform="translate(-1.229 6.694)">
      <g id="Ellipse_294" data-name="Ellipse 294" transform="translate(34.229 24.306)" fill="none" stroke="#2d2ee0" stroke-width="3">
        <circle cx="7" cy="7" r="7" stroke="none"/>
        <circle cx="7" cy="7" r="5.5" fill="none"/>
      </g>
      <path id="Path_10037" data-name="Path 10037" d="M25,31.308V38A12.757,12.757,0,0,1,12.5,51,12.757,12.757,0,0,1,0,38V24.36" transform="translate(16.229 4.306)" fill="none" stroke="#2d2ee0" stroke-width="3"/>
      <path id="Path_10038" data-name="Path 10038" d="M28.99,25.606V38c0,7.18-6.49,13-14.5,13S0,45.18,0,38V25.606" transform="translate(2.192 -22.135)" fill="none" stroke="#2d2ee0" stroke-width="3"/>
      <path id="Path_10039" data-name="Path 10039" d="M23.985.665v4" transform="translate(0 1.303)" fill="none" stroke="#2d2ee0" stroke-linecap="round" stroke-width="3"/>
      <path id="Path_10042" data-name="Path 10042" d="M23.985.665v4" transform="translate(-14.558 1.303)" fill="none" stroke="#2d2ee0" stroke-linecap="round" stroke-width="3"/>
      <path id="Path_10040" data-name="Path 10040" d="M23.985,4.192h8.694" fill="none" stroke="#2d2ee0" stroke-width="3"/>
      <path id="Path_10041" data-name="Path 10041" d="M32.719,4.192H23.985" transform="translate(-23.292)" fill="none" stroke="#2d2ee0" stroke-width="3"/>
    </g>
  </g>
</svg>
